<?xml version="1.0" encoding="UTF-8" standalone="no"?>
<!-- Created with Inkscape (http://www.inkscape.org/) -->

<svg
   xmlns:dc="http://purl.org/dc/elements/1.1/"
   xmlns:cc="http://creativecommons.org/ns#"
   xmlns:rdf="http://www.w3.org/1999/02/22-rdf-syntax-ns#"
   xmlns:svg="http://www.w3.org/2000/svg"
   xmlns="http://www.w3.org/2000/svg"
   version="1.1"
   width="100"
   height="103"
   id="svg7262">
  <metadata
     id="metadata7268">
    <rdf:RDF>
      <cc:Work
         rdf:about="">
        <dc:format>image/svg+xml</dc:format>
        <dc:type
           rdf:resource="http://purl.org/dc/dcmitype/StillImage" />
        <dc:title></dc:title>
      </cc:Work>
    </rdf:RDF>
  </metadata>
  <defs
     id="defs7266" />
  <path
     d="m -0.00107331,51.564917 0,-51.43508771 49.93697731,0 49.936975,0 0,51.43508771 0,51.435093 -49.936975,0 -49.93697731,0 0,-51.435093 z M 97.638056,63.1127 C 97.782174,42.547953 97.521824,25.343994 97.059517,24.881679 96.206961,24.029125 93.602665,25.139892 88.647606,28.469466 84.297364,31.392634 78.349993,41.214676 76.37932,48.730471 74.138538,57.276375 73.3454,58.214884 72.443807,53.387313 71.025168,45.791256 65.539292,35.823645 60.075547,30.914685 53.305201,24.831801 50.222991,24.154973 44.517932,27.498359 37.311328,31.721708 31.897919,39.833237 28.456563,51.564917 27.489773,54.860757 26.57272,57.107921 26.418674,56.558614 22.273456,41.777213 20.414792,37.683904 15.254575,31.972166 11.55007,27.871721 4.7445189,23.681865 3.6181801,24.808197 3.2755127,25.150867 2.9951468,42.439173 2.9951468,63.226657 l 0,37.795423 47.1904422,-0.25946 47.190441,-0.25946 0.262026,-37.39046 z m -74.668119,31.026969 0,-3.866634 7.740232,-0.462233 c 8.884307,-0.530554 14.778428,-3.045751 17.451365,-7.447019 1.710201,-2.816015 1.721387,-2.775011 1.747793,6.40418 l 0.02656,9.238347 -13.482983,0 -13.482984,0 0,-3.866641 z m 42.945798,-2.593828 c 0,-4.785315 0.323713,-6.322985 1.248425,-5.930264 1.372198,0.582765 8.969371,9.586346 9.544325,11.311194 0.2292,0.687623 -1.66458,1.079539 -5.216457,1.079539 l -5.576293,0 0,-6.460469 z M 92.8817,96.164217 c 0,-0.463839 -2.247159,-3.411306 -4.993694,-6.549924 -2.746535,-3.138619 -4.9937,-6.050876 -4.9937,-6.471683 0,-0.420808 2.471881,-4.0691 5.49307,-8.107315 l 5.493064,-7.342211 0,14.65724 c 0,8.061482 -0.224716,14.657246 -0.49937,14.657246 -0.274654,0 -0.49937,-0.379512 -0.49937,-0.843353 z M 22.969937,77.640415 c 0,-7.475764 0.04115,-7.598818 2.542251,-7.598818 3.025882,0 7.445144,4.089787 7.445144,6.890087 0,2.73361 -3.920441,6.88224 -7.240861,7.662306 l -2.746534,0.645243 0,-7.598818 z m 42.945798,-4.103229 0,-6.491807 5.552014,0 c 4.168339,0 5.368574,0.311131 4.815962,1.248424 -1.780034,3.019141 -8.914499,11.735188 -9.605767,11.735188 -0.41921,0 -0.762209,-2.921312 -0.762209,-6.491805 z M 47.097337,73.052225 c -1.286556,-1.748284 -3.645539,-3.634097 -5.242194,-4.190691 -1.596656,-0.556597 -2.66218,-1.401657 -2.367832,-1.877911 0.497981,-0.805752 9.315005,-0.406008 10.182669,0.461659 0.215019,0.215013 0.250454,2.279742 0.0787,4.588287 L 49.436498,76.230926 47.0973,73.052225 z M 5.9913654,46.071849 c 0,-9.338214 0.240526,-16.978571 0.5345051,-16.978571 1.5370898,0 5.4826205,3.503896 8.1618695,7.248286 3.297308,4.608151 7.621301,15.711633 8.748169,22.464214 l 0.708346,4.244643 -9.076444,0 -9.0764456,0 0,-16.978572 z M 29.961114,60.995834 c 0,-1.130024 0.504084,-4.056491 1.120186,-6.503261 0.835706,-3.318855 1.7034,-4.595051 3.416598,-5.025035 4.176149,-1.048148 5.928118,-0.109922 6.262946,3.353982 0.416045,4.30411 2.953842,4.297951 3.369028,-0.0082 0.238708,-2.475745 0.786906,-3.245892 2.310444,-3.245892 1.523546,0 2.071736,0.770147 2.310444,3.245903 0.415186,4.30613 2.952983,4.31229 3.369027,0.0082 0.20612,-2.132373 0.909662,-3.350771 2.06076,-3.568831 1.405565,-0.266266 1.747794,0.382029 1.747794,3.310957 0,2.928926 0.342229,3.577222 1.747794,3.310955 1.158877,-0.219533 1.85466,-1.441004 2.064954,-3.625086 0.302019,-3.136708 0.492428,-3.279383 3.987866,-2.98804 4.135002,0.344651 5.496164,2.321441 6.571907,9.544292 l 0.632182,4.244643 -20.485965,0 c -20.009946,0 -20.485965,-0.04774 -20.485965,-2.054587 z m 46.952611,-0.192577 c 0.04984,-9.441625 8.873493,-27.448894 15.076962,-30.768894 1.819477,-0.97375 1.889753,-0.378589 1.889753,16.002346 l 0,17.013712 -8.489284,0 c -8.141384,0 -8.488796,-0.09209 -8.477431,-2.247164 z M 33.956072,45.268643 c 0,-1.058527 5.797263,-10.182929 6.469815,-10.182929 0.286747,0 0.521361,2.47188 0.521361,5.493068 l 0,5.493067 -3.495588,0 c -1.922574,0 -3.495588,-0.361443 -3.495588,-0.803206 z m 9.987395,-6.652201 c 0,-6.348776 0.286747,-7.608869 1.931822,-8.489286 1.062499,-0.568634 2.186081,-1.033878 2.496848,-1.033878 0.310769,0 0.565027,3.820177 0.565027,8.489285 0,8.389412 -0.02936,8.489286 -2.496848,8.489286 -2.44032,0 -2.496849,-0.168799 -2.496849,-7.455407 z m 7.989916,-1.033879 c 0,-4.669108 0.359546,-8.489285 0.798991,-8.489285 2.22676,0 3.195967,2.937911 3.195967,9.687773 0,6.624971 -0.182419,7.290798 -1.997479,7.290798 -1.840816,0 -1.997479,-0.665827 -1.997479,-8.489286 z m 7.989916,2.996219 c 0,-3.021188 0.20577,-5.493068 0.457274,-5.493068 0.724604,0 5.535162,8.539202 5.535162,9.825458 0,0.638372 -1.348298,1.160677 -2.996217,1.160677 -2.965958,0 -2.996219,-0.05549 -2.996219,-5.493067 z m -29.987593,1.051982 c 3.46256,-7.255149 9.189253,-13.564706 15.004093,-16.531214 5.064329,-2.583632 6.242003,-2.523366 11.556974,0.591415 5.909982,3.463478 11.500705,9.996822 14.377065,16.801087 2.23477,5.286546 4.030554,7.17506 4.030554,4.238687 0,-2.717377 6.025346,-13.282564 9.490433,-16.64105 1.966447,-1.905961 5.691674,-4.629969 8.278281,-6.05335 l 4.702924,-2.587965 0,-8.911477 0,-8.9114788 -9.23834,-0.2871587 -9.238341,-0.2871639 0,5.5305441 0,5.5305453 -8.936461,0 -8.936461,0 -0.301879,-5.2433815 -0.301879,-5.2433853 -9.987394,0 -9.987396,0 -0.30188,5.2433853 -0.301879,5.2433815 -8.884266,0 -8.884268,0 -0.301879,-5.2433815 -0.30188,-5.2433853 -8.988655,0 -8.9886558,0 -0.2754323,8.9886568 -0.2754323,8.988656 5.644306,2.934677 c 6.6026184,3.432932 12.0248444,9.770516 15.3331194,17.921569 1.25239,3.085693 2.426637,5.610351 2.609426,5.610351 0.182799,0 1.715136,-2.897353 3.405203,-6.438564 z"
     id="logo"
     style="fill:#00005a;fill-opacity:1" />
</svg>
