<?xml version="1.0" encoding="UTF-8" standalone="no"?>
<!-- Created with Inkscape (http://www.inkscape.org/) -->

<svg
   xmlns:dc="http://purl.org/dc/elements/1.1/"
   xmlns:cc="http://creativecommons.org/ns#"
   xmlns:rdf="http://www.w3.org/1999/02/22-rdf-syntax-ns#"
   xmlns:svg="http://www.w3.org/2000/svg"
   xmlns="http://www.w3.org/2000/svg"
   xmlns:sodipodi="http://sodipodi.sourceforge.net/DTD/sodipodi-0.dtd"
   xmlns:inkscape="http://www.inkscape.org/namespaces/inkscape"
   id="svg3036"
   version="1.1"
   inkscape:version="0.48.4 r9939"
   width="442"
   height="442"
   sodipodi:docname="doc.svg">
  <metadata
     id="metadata3042">
    <rdf:RDF>
      <cc:Work
         rdf:about="">
        <dc:format>image/svg+xml</dc:format>
        <dc:type
           rdf:resource="http://purl.org/dc/dcmitype/StillImage" />
      </cc:Work>
    </rdf:RDF>
  </metadata>
  <defs
     id="defs3040" />
  <sodipodi:namedview
     pagecolor="#ffffff"
     bordercolor="#666666"
     borderopacity="1"
     objecttolerance="10"
     gridtolerance="10"
     guidetolerance="10"
     inkscape:pageopacity="0"
     inkscape:pageshadow="2"
     inkscape:window-width="1309"
     inkscape:window-height="744"
     id="namedview3038"
     showgrid="false"
     inkscape:zoom="2.1357466"
     inkscape:cx="214.38421"
     inkscape:cy="304.07167"
     inkscape:window-x="57"
     inkscape:window-y="24"
     inkscape:window-maximized="1"
     inkscape:current-layer="layer1" />
  <g
     inkscape:groupmode="layer"
     id="layer2"
     inkscape:label="Logo_main"
     style="opacity:0.77160494">
    <path
       style="fill:#ffffff;stroke:none;stroke-width:8.40000000000000036;stroke-linecap:butt;stroke-linejoin:miter;stroke-opacity:1;fill-opacity:1;stroke-miterlimit:4;stroke-dasharray:none"
       d="M 65.550848,194.31144 66.487288,82.406779 C 65.860317,49.563926 75.084498,42.997025 107.69068,43.544491 l 154.98093,-0.46822 109.56356,111.436439 -0.93644,213.50848 c 0.25824,17.58923 -14.24631,26.70283 -23.41102,25.28389 l -253.775422,0 C 66.358981,392.61175 67.44564,375.63908 67.189619,366.38242 z"
       id="path3133"
       inkscape:connector-curvature="0"
       sodipodi:nodetypes="cccccccccc" />
  </g>
  <g
     inkscape:groupmode="layer"
     id="layer1"
     inkscape:label="Logo"
     style="display:inline">
    <g
       id="g3048"
       transform="translate(1.4869571,-1.4869543)">
      <path
         style="fill:#93b7e0"
         d="m 79.005,398.26343 c -2.803899,-0.99395 -6.599895,-3.69833 -10.089877,-7.18831 -9.785615,-9.78561 -8.970142,6.44143 -8.67439,-172.61106 L 60.5,61.5 62.967094,56.670231 c 2.962469,-5.799553 8.620372,-11.124445 14.910501,-14.032903 4.598546,-2.126296 5.086796,-2.138726 94.591575,-2.408244 l 89.96917,-0.270916 56.30195,56.301944 56.30194,56.301948 -0.27111,111.96897 L 374.5,376.5 371.90984,382 c -3.49956,7.43103 -6.74049,11.036 -13.07712,14.54605 L 353.5,399.5 l -135,0.17843 c -121.264579,0.16028 -135.457339,0.0163 -139.495,-1.415 z M 354.5,388.41094 c 2.2,-1.14898 5.35,-4.00013 7,-6.33588 l 3,-4.24683 0.27908,-106.66412 c 0.1535,-58.66526 0.0324,-107.67661 -0.26905,-108.91411 -0.40324,-1.65524 -1.27003,-2.24639 -3.27908,-2.23635 -4.47428,0.0224 -7.12735,1.08458 -7.77054,3.11109 -1.29981,4.09535 -15.88979,8.88684 -25.46041,8.36145 -2.475,-0.13587 -9.9,-0.54579 -16.5,-0.91094 -21.16242,-1.17083 -28.05157,-2.92013 -32.64533,-8.28933 -1.31097,-1.53226 -4.3359,-4.11673 -6.72208,-5.74327 -4.97755,-3.39296 -9.98053,-9.23328 -12.93253,-15.09702 -2.03695,-4.04612 -4.68117,-15.82893 -3.86315,-17.21441 0.23745,-0.40217 1.0005,-16.80473 1.69565,-36.450141 1.02184,-28.877707 1.02054,-36.012167 -0.007,-37.25 C 255.90329,49.17854 245.95847,49 171.74357,49 111.68798,49 86.645685,49.32548 83.922284,50.14143 78.697275,51.706881 73.110241,56.5471 70.892813,61.429259 69.120185,65.332093 69.043018,71.8637 69.021962,219.78212 c -0.01954,137.25196 0.149468,154.69251 1.531086,158 2.058082,4.92689 6.042565,9.05003 10.946952,11.32789 3.842696,1.78475 9.210707,1.84861 136.5,1.6239 132.21481,-0.23341 132.50861,-0.23841 136.5,-2.32297 z M 103.94974,330.55 c -1.27737,-1.27772 -1.22712,-21.26054 0.0555,-22.05321 1.28771,-0.79585 213.67395,-2.55714 215.67679,-1.78858 1.1557,0.44348 1.35022,1.52094 0.8456,4.68388 -0.36046,2.25935 -0.88816,7.39855 -1.17267,11.42045 -0.29909,4.22782 -1.01035,7.49421 -1.68611,7.7432 -2.51636,0.92718 -212.79206,0.92153 -213.71907,-0.006 z M 104.25,284.88422 c -1.37892,-1.41667 -1.57911,-6.44208 -0.62156,-15.60342 l 0.62844,-6.01258 9.62156,-0.62193 c 5.29186,-0.34206 53.66397,-0.67762 107.49358,-0.74569 105.78018,-0.13376 100.40743,-0.41031 99.06721,5.0994 -0.33447,1.375 -0.84277,5.9875 -1.12956,10.25 l -0.52144,7.75 -102.25454,0 c -56.24,0 -104.22985,0.2629 -106.64412,0.58422 -2.9392,0.39119 -4.80259,0.15991 -5.63957,-0.7 z m 0.17877,-46.20924 c -0.27965,-0.72876 -0.37802,-5.56626 -0.21861,-10.75 L 104.5,218.5 l 37,-0.73447 c 20.35,-0.40396 68.725,-0.62896 107.5,-0.5 L 319.5,217.5 319.13547,228 c -0.2005,5.775 -0.56455,10.8375 -0.80902,11.25 -0.24447,0.4125 -48.35705,0.75 -106.91685,0.75 -87.47034,0 -106.56311,-0.23647 -106.98083,-1.32502 z M 105.21492,183.75856 105.5,173.5 l 53.22204,-0.86772 c 29.27212,-0.47724 53.92546,-0.59779 54.78518,-0.26788 1.30392,0.50036 1.51585,2.30261 1.27796,10.86772 L 214.5,193.5 l -54.78508,0.25856 -54.78508,0.25855 0.28508,-10.25855 z M 133.75,148.25872 106,147.96836 l 0,-8.96513 c 0,-8.46616 0.12523,-8.996 2.25,-9.51978 3.54719,-0.87444 104.15887,-2.34285 105.03816,-1.53302 0.43349,0.39924 0.65849,5.18622 0.5,10.63773 L 213.5,148.5 l -26,0.0245 c -14.3,0.0135 -38.4875,-0.10612 -53.75,-0.26581 z"
         id="path3056"
         inkscape:connector-curvature="0" />
      <path
         style="fill:#5d99d8"
         d="M 81.995441,398.65856 C 71.866497,395.9046 63.118909,386.72186 61.035723,376.65619 60.299625,373.09947 60.051021,323.72875 60.2343,217.5 L 60.5,63.5 62.808109,58.401179 C 65.685677,52.04437 71.963803,45.801674 78.5,42.797843 l 5,-2.297843 88.95403,-0.286057 88.95403,-0.286057 56.31283,56.312832 56.31284,56.312832 -0.26687,112.97323 L 373.5,378.5 l -2.25614,4.2222 c -3.53847,6.62199 -7.90238,10.96276 -14.06226,13.98771 L 351.5,399.5 219,399.69166 c -101.92626,0.14743 -133.539405,-0.091 -137.004559,-1.0331 z m 268.590499,-8.12824 c 3.15339,-0.93645 6.28547,-2.84124 8.63268,-5.25 7.24139,-7.43127 6.78138,0.50919 6.78138,-117.05707 0,-86.73086 -0.24123,-106.1709 -1.33607,-107.66818 -1.27403,-1.74234 -2.96393,-1.78154 -36.39505,-0.84426 -19.28245,0.5406 -37.56312,0.6431 -40.62373,0.22777 -16.6852,-2.26424 -29.48045,-15.19017 -30.4832,-30.79453 -0.4293,-6.68066 1.59617,-50.026447 2.51837,-53.89405 0.29507,-1.2375 1.1027,-2.25 1.79474,-2.25 C 263.41454,73 273,68.829119 273,67.9852 c 0,-0.411483 -3.63192,-4.858723 -8.07093,-9.882755 L 256.85814,48.967839 169.60564,49.23392 82.353144,49.5 78.231848,52.227608 c -2.266713,1.500185 -5.38367,4.875185 -6.926572,7.5 L 68.5,64.5 68.191604,217 c -0.229104,113.29094 -0.009,153.88935 0.856122,157.90374 0.930569,4.31814 2.109017,6.34824 5.865917,10.10514 2.962334,2.96234 6.159738,5.08666 8.643878,5.74291 2.625622,0.69362 47.053629,1.07603 133.010979,1.14486 110.84453,0.0888 129.76727,-0.10416 134.01744,-1.36633 z M 104.41633,330.08333 C 104.18735,329.85417 104,325.06481 104,319.44032 c 0,-8.4026 0.28209,-10.33459 1.58179,-10.83333 C 106.45177,308.27314 154.77863,308 212.9748,308 c 83.7415,0 105.9054,0.26072 106.26274,1.25 0.89626,2.48127 -0.48782,19.90885 -1.61367,20.31844 -1.49014,0.54212 -212.67074,1.05212 -213.20754,0.51489 z m 0.25484,-45.74549 C 103.45665,283.12332 103.91998,265.48002 105.2,264.2 c 1.78779,-1.78779 213.40169,-1.73835 214.01403,0.05 0.23541,0.6875 0.17105,5.525 -0.14301,10.75 l -0.57102,9.5 -106.57883,0.2545 c -58.61836,0.13998 -106.88086,-0.0475 -107.25,-0.41666 z M 136.25,239.25053 105,238.97151 l 0,-9.82963 0,-9.82962 15.15899,-0.65613 C 128.49644,218.29526 176.64644,218 227.15899,218 L 319,218 l 0,9.8 c 0,6.28889 -0.42993,10.22993 -1.2,11 -1.15182,1.15182 -80.8531,1.34961 -181.55,0.45053 z m -3,-45.99192 -27.25,-0.29075 0,-8.8551 0,-8.8551 4.75,-0.59978 c 2.6125,-0.32988 26.92902,-0.9086 54.03672,-1.28605 l 49.28672,-0.68627 -0.28672,10.40722 L 213.5,193.5 187,193.52468 c -14.575,0.0136 -38.7625,-0.10615 -53.75,-0.26607 z m 20.58778,-46.20402 -12.66221,-0.55459 12.38707,-8.42753 12.38707,-8.42753 22.77515,-0.7062 c 12.52633,-0.38841 23.07215,-0.42102 23.43517,-0.0725 0.36302,0.34855 0.81302,4.68373 1,9.63373 l 0.33997,9 -23.5,0.0546 c -12.925,0.03 -29.198,-0.19497 -36.16222,-0.5 z"
         id="path3054"
         inkscape:connector-curvature="0" />
      <path
         style="fill:#3882d0"
         d="M 80.702676,397.55768 C 71.679573,394.33906 64.417438,386.76114 61.993084,378.03452 61.370085,375.792 61.009115,317.94693 61.005577,219.78751 c -0.0055,-153.077282 0.0159,-154.76988 2.026191,-160.14287 1.392469,-3.721709 3.601687,-6.898862 7.021164,-10.097383 9.279392,-8.679784 1.107088,-8.012262 101.900118,-8.32331 L 261.40609,40.947894 317.20305,96.711852 373,152.47581 l 0,112.56575 0,112.56575 -2.5839,5.18521 c -3.33182,6.6861 -10.28236,12.79331 -16.74365,14.71211 -4.36139,1.2952 -22.71452,1.48949 -137.10395,1.45148 -108.47062,-0.0361 -132.747002,-0.28592 -135.865824,-1.39843 z m 272.596984,-7.16963 c 4.12709,-2.07874 9.41906,-7.07362 11.53566,-10.88805 1.51923,-2.73787 1.68629,-12.3055 1.91202,-109.5 0.19736,-84.97959 -0.0115,-107.00517 -1.03334,-109 l -1.28067,-2.5 -40.96667,0 -40.96666,0 -5.64286,-2.77194 c -6.58374,-3.23412 -13.13578,-9.93024 -16.19625,-16.55239 -1.77599,-3.84284 -2.13424,-6.34104 -2.01125,-14.02531 0.0823,-5.1423 0.57127,-9.77127 1.08659,-10.28659 0.51532,-0.51532 2.24798,-1.16751 3.85036,-1.44932 1.60237,-0.2818 4.58264,-1.37359 6.62281,-2.4262 3.28255,-1.6936 18.80214,-5.98825 21.63976,-5.98825 0.5917,0 3.5677,-0.93233 6.61333,-2.07185 C 302.44217,101.43916 304,100.33488 304,99.002846 304,96.988612 292.98329,84.590827 271.32308,62.229476 L 257.5,47.958952 171.36419,47.979476 85.228383,48 79.864192,50.79344 C 75.726376,52.948236 73.756976,54.824259 71.25,58.999203 L 68,64.411526 68,220.2456 c 0,151.37857 0.05456,155.94015 1.908417,159.54424 1.04963,2.04059 3.18713,4.92284 4.75,6.405 6.416405,6.08504 -2.534289,5.72323 142.641243,5.76602 120.20254,0.0354 133.10324,-0.11377 136,-1.57281 z M 105.21502,319.75 105.5,309.5 l 106.5,0 106.5,0 -0.36494,9.5 c -0.20072,5.225 -0.56478,9.8375 -0.80902,10.25 C 317.0818,329.6625 269.19278,330 210.906,330 l -105.97597,0 0.28499,-10.25 z m -10e-4,-45.5 0.28621,-9.75 105.94541,-0.25459 c 58.26997,-0.14003 106.24598,0.085 106.61335,0.5 0.36737,0.41502 0.44939,4.91709 0.18227,10.00459 l -0.48567,9.25 -106.41389,0 -106.41389,0 0.28621,-9.75 z m 17.3968,-35.99894 -16.88941,-0.30068 0.53248,-8.53492 c 0.29286,-4.69421 0.77265,-8.7751 1.06619,-9.06864 0.29355,-0.29355 47.43593,-0.96883 104.76086,-1.50063 85.61502,-0.79425 104.43513,-0.73292 105.39189,0.34345 0.77752,0.87473 1.02572,4.38555 0.74658,10.56036 L 317.801,239 228.6505,238.77588 c -49.03277,-0.12327 -96.75073,-0.35944 -106.03991,-0.52482 z M 160.6385,192.04886 148.777,191.5 l 11.3615,-7.95754 11.3615,-7.95753 8.5,-0.70539 c 4.675,-0.38796 14.0125,-0.74457 20.75,-0.79247 L 213,174 l 0,9.5 0,9.5 -20.25,-0.20114 c -11.1375,-0.11062 -25.58768,-0.44812 -32.1115,-0.75 z"
         id="path3052"
         inkscape:connector-curvature="0" />
      <path
         style="fill:#136cc8"
         d="m 79.053571,396.27224 c -2.530383,-0.89338 -6.444324,-3.56775 -9.082802,-6.20623 -8.646698,-8.6467 -7.973613,5.79032 -7.948807,-170.49415 C 62.043737,64.828106 62.061222,63.461707 64.076676,59 66.550248,53.524135 72.117461,47.578922 77.5,44.665266 l 4,-2.165266 90.02331,-0.270498 90.0233,-0.270497 13.45509,13.770497 c 7.40029,7.573774 32.48684,32.922252 55.74788,56.329948 l 42.2928,42.55946 -0.27119,111.44054 L 372.5,377.5 l -2.68578,5.09002 c -3.07535,5.82833 -8.36478,10.84703 -14.24884,13.51957 -3.89002,1.76684 -9.84551,1.84403 -138.06538,1.7895 C 98.38939,397.84844 83.005936,397.66767 79.053571,396.27224 z M 354.99813,390.25 c 3.1469,-1.65579 6.47497,-4.48012 8.36419,-7.09818 l 3.13768,-4.34817 0.26309,-109.53359 c 0.20743,-86.36157 -8.7e-4,-109.85164 -0.9846,-111.03696 -1.09028,-1.31371 -6.1695,-1.41245 -40.26308,-0.7827 -38.04089,0.70267 -39.15443,0.66851 -44.58108,-1.36775 -3.06112,-1.14863 -6.88612,-3.47054 -8.5,-5.15981 -2.89417,-3.02937 -2.90696,-3.09238 -0.93433,-4.60386 1.1,-0.84285 3.575,-2.2109 5.5,-3.04011 1.925,-0.82921 4.63798,-2.31595 6.02884,-3.30388 1.39086,-0.98792 6.56586,-3.09184 11.5,-4.67538 l 8.97116,-2.87916 5.24245,-10.46022 c 8.75068,-17.46016 11.14214,-12.53718 -22.36905,-46.048371 L 257.46154,47 172.8897,47 c -91.516359,0 -90.170006,-0.07453 -97.331407,5.38774 -1.843341,1.405985 -4.523052,4.907274 -5.954912,7.780643 L 67,65.392689 67,220.22846 c 0,170.94908 -0.473391,158.50372 6.300681,165.64365 1.759626,1.85466 4.999319,4.20728 7.199319,5.22804 3.832284,1.77811 9.561283,1.85685 136.63581,1.87789 l 132.63581,0.022 5.22651,-2.75 z M 106,319.5 l 0,-9.5 105.44098,0 c 63.38966,0 105.6686,0.36829 106.01172,0.92347 0.3139,0.5079 0.27407,4.7829 -0.0885,9.5 L 316.70495,329 211.35247,329 106,329 l 0,-9.5 z m 0.32755,-37.08839 c -0.22962,-0.59862 -0.28476,-4.64862 -0.12252,-9 L 106.5,265.5 l 105.80254,-0.25457 105.80253,-0.25457 -0.6854,8.75457 c -0.37698,4.81501 -0.76549,8.85693 -0.86335,8.98205 -0.0979,0.12511 -47.34544,0.35011 -104.9946,0.5 -74.86195,0.19464 -104.93598,-0.0385 -105.23417,-0.81587 z m 39.02837,-45.3118 -4.14409,-0.59981 12.09172,-8.39579 12.09171,-8.39578 75.65551,-0.49635 c 52.96819,-0.34751 75.853,-0.1768 76.31409,0.56925 0.36221,0.58608 0.36191,4.92504 -6.7e-4,9.64214 L 316.70495,238 233.10247,237.84981 c -45.98136,-0.0826 -85.46731,-0.42011 -87.74655,-0.75 z M 207,190.9512 c 4.34103,-2.94662 5,-3.07662 5,-0.98638 0,1.63258 -0.64292,2.03215 -3.25,2.01987 -2.52336,-0.0119 -2.91463,-0.24296 -1.75,-1.03349 z"
         id="path3050"
         inkscape:connector-curvature="0" />
    </g>
  </g>
</svg>
