<?xml version="1.0" encoding="UTF-8" standalone="no"?>
<!-- Created with Inkscape (http://www.inkscape.org/) -->

<svg
   xmlns:dc="http://purl.org/dc/elements/1.1/"
   xmlns:cc="http://creativecommons.org/ns#"
   xmlns:rdf="http://www.w3.org/1999/02/22-rdf-syntax-ns#"
   xmlns:svg="http://www.w3.org/2000/svg"
   xmlns="http://www.w3.org/2000/svg"
   version="1.1"
   width="100"
   height="93"
   id="svg5776">
  <metadata
     id="metadata5782">
    <rdf:RDF>
      <cc:Work
         rdf:about="">
        <dc:format>image/svg+xml</dc:format>
        <dc:type
           rdf:resource="http://purl.org/dc/dcmitype/StillImage" />
        <dc:title></dc:title>
      </cc:Work>
    </rdf:RDF>
  </metadata>
  <defs
     id="defs5780" />
  <g
     id="layer7"
     style="display:inline">
    <path
       d="M 23.810041,88.346597 C 17.602028,85.074248 8.9993327,75.777032 5.4683547,68.524132 -14.02653,28.48014 27.797497,-14.140644 67.33695,5.4769276 c 6.290607,3.121095 13.936427,8.7737964 13.936427,10.3034624 0,0.506841 -1.41009,-0.264982 -3.13353,-1.715162 C 65.037701,3.0404956 43.645878,1.4066037 28.336476,10.261282 13.792593,18.673197 5.2481647,33.543787 5.2944717,50.363226 c 0.04244,15.415553 8.3574233,30.499658 20.9789083,38.057581 4.514876,2.703571 2.702864,2.648983 -2.463339,-0.07421 z M 20.344465,63.836718 c -4.802649,-2.538766 -7.272203,-6.350263 -7.822037,-12.072491 -0.528999,-5.505405 0.942638,-9.227262 5.235188,-13.240095 2.360134,-2.20634 3.721346,-2.541024 11.588314,-2.849248 10.079971,-0.394928 10.260644,-0.265369 9.740538,6.984844 l -0.313088,4.364404 -2.401141,-4.191284 c -2.864436,-4.999984 -6.505227,-6.865112 -10.463355,-5.360235 -8.347388,3.173672 -6.954048,24.830825 1.66394,25.863169 5.247317,0.628574 6.672712,-1.578286 5.777522,-8.945019 -0.04233,-0.348352 -1.089466,-0.985921 -2.326966,-1.416819 -1.853792,-0.645491 -1.481462,-0.85323 2.114404,-1.179719 6.432816,-0.584072 7.135596,-0.03864 7.135596,5.538007 0,4.339949 -0.299748,5.008931 -2.75,6.137494 -4.823771,2.221783 -13.326538,2.403427 -17.178915,0.366992 z M 49.77338,63.63868 c -5.197541,-2.392855 -7.501787,-6.473063 -7.493411,-13.26884 0.0074,-5.987325 2.012565,-9.900501 6.634708,-12.947822 2.181054,-1.437942 4.703263,-1.88627 10.640088,-1.891297 8.754333,-0.0074 9.027285,0.220663 8.531703,7.129007 l -0.313088,4.364404 -2.401141,-4.191284 c -4.161036,-7.26325 -11.3883,-7.852585 -14.162586,-1.154865 -2.699756,6.517787 -0.538025,18.633785 3.608529,20.224968 3.408352,1.307907 7.396834,0.541171 10.420708,-2.003251 1.715428,-1.443437 3.314603,-2.428788 3.553724,-2.189668 0.964133,0.964132 -2.98912,5.112484 -6.117808,6.419733 -4.461393,1.86409 -8.08536,1.726145 -12.901426,-0.491085 z m 26.712567,0.434209 c -4.90276,-2.212718 -6.3436,-6.6211 -5.99814,-18.351775 l 0.28557,-9.696982 5.5,-0.254142 c 4.21594,-0.194809 5.09144,-0.0081 3.75,0.79969 -1.49351,0.89938 -1.75,2.636022 -1.75,11.849155 0,12.280436 0.9281,14.105297 7.17376,14.105297 6.08074,0 7.26111,-2.397661 7.68023,-15.600636 l 0.36187,-11.399364 3.14207,0.06339 c 2.88397,0.05818 2.95725,0.137677 0.89207,0.967776 -2.13336,0.857509 -2.25,1.449525 -2.25,11.420837 0,10.113588 -0.10762,10.636897 -2.80939,13.660702 -2.28306,2.555187 -3.735,3.216897 -7.75,3.531999 -3.01854,0.236899 -6.21953,-0.189461 -8.22804,-1.095943 z"
       id="path5788"
       style="fill:#1363ab;fill-opacity:0.98823529" />
  </g>
</svg>
