<?xml version="1.0" encoding="UTF-8" standalone="no"?>
<!-- Created with Inkscape (http://www.inkscape.org/) -->

<svg
   xmlns:dc="http://purl.org/dc/elements/1.1/"
   xmlns:cc="http://creativecommons.org/ns#"
   xmlns:rdf="http://www.w3.org/1999/02/22-rdf-syntax-ns#"
   xmlns:svg="http://www.w3.org/2000/svg"
   xmlns="http://www.w3.org/2000/svg"
   xmlns:sodipodi="http://sodipodi.sourceforge.net/DTD/sodipodi-0.dtd"
   xmlns:inkscape="http://www.inkscape.org/namespaces/inkscape"
   id="svg3036"
   version="1.1"
   inkscape:version="0.48.4 r9939"
   width="100"
   height="74"
   sodipodi:docname="inh.svg">
  <metadata
     id="metadata3042">
    <rdf:RDF>
      <cc:Work
         rdf:about="">
        <dc:format>image/svg+xml</dc:format>
        <dc:type
           rdf:resource="http://purl.org/dc/dcmitype/StillImage" />
        <dc:title></dc:title>
      </cc:Work>
    </rdf:RDF>
  </metadata>
  <defs
     id="defs3040" />
  <sodipodi:namedview
     pagecolor="#ffffff"
     bordercolor="#666666"
     borderopacity="1"
     objecttolerance="10"
     gridtolerance="10"
     guidetolerance="10"
     inkscape:pageopacity="0"
     inkscape:pageshadow="2"
     inkscape:window-width="1309"
     inkscape:window-height="744"
     id="namedview3038"
     showgrid="false"
     inkscape:zoom="8"
     inkscape:cx="90.429669"
     inkscape:cy="40.22851"
     inkscape:window-x="57"
     inkscape:window-y="24"
     inkscape:window-maximized="1"
     inkscape:current-layer="layer1" />
  <g
     inkscape:groupmode="layer"
     id="layer1"
     inkscape:label="vect"
     style="display:inline">
    <path
       style="fill:#e2047f;fill-opacity:1"
       d="m 49.207265,70.703377 -4.25,-1.953579 0,-20.46216 c 0,-19.128828 -0.130322,-20.592483 -2,-22.46216 -2.533482,-2.533482 -4.071337,-2.518327 -7.365141,0.07258 l -2.634859,2.072579 0,17.92742 c 0,9.860081 -0.0428,17.92742 -0.372882,17.92742 -0.205085,0 -2.455085,-0.921057 -5,-2.046794 l -4.627118,-2.046795 0,-19.211087 0,-19.211087 4.5,-1.61819 c 5.134695,-1.846425 4.47933,-1.374157 4.5,-0.242118 0.04419,2.420432 -0.563,2.497428 3.462691,-1.001771 6.091517,-5.29485 15.979943,-3.528376 18.462486,3.59305 1.221225,3.503208 1.524467,50.835308 0.324823,50.700531 -0.4125,-0.04634 -2.6625,-0.963371 -5,-2.037839 z M 8.7072653,54.092602 l -3.75,-1.538517 0,-12.389055 c 0,-13.628558 0.05183,-12.046833 -0.033435,-12.136028 -0.044371,-0.04642 9.0334347,-3.338299 9.0334347,-3.338299 l 0,15.567386 c 0,8.562064 -0.11875,14.398657 -0.46875,15.407709 -0.136309,0.39298 -2.71875,-0.727012 -4.7812497,-1.573196 z m 60.7941937,-2.751313 -5.044194,-0.11677 0.210579,-22.622812 0.210578,-22.1366746 4.789422,-1.818963 c 2.634181,-1.000429 4.901921,-1.819329 5.039421,-1.819777 0.1375,-4.48e-4 -0.339474,4.2616857 -0.296053,9.6241856 0.04342,5.3625 0.05908,8.428032 0.340347,7.72896 1.531919,-3.807455 11.980656,-4.555938 17.146949,-1.884345 4.062918,2.101016 5.058758,6.122685 5.058758,20.429607 l 0,12.600777 -5.000001,0 -5,0 0,-10.815741 c 0,-12.678837 -0.739215,-14.684258 -5.412739,-14.684258 -5.153422,0 -6.024568,1.9041 -6.587261,14.398068 l -0.5,11.101931 z"
       id="path3046"
       inkscape:connector-curvature="0"
       sodipodi:nodetypes="scssscssscccssssssscsscsssccccsssssscccssscc" />
  </g>
</svg>
