<?xml version="1.0" encoding="UTF-8" standalone="no"?>
<!-- Created with Inkscape (http://www.inkscape.org/) -->

<svg
   xmlns:dc="http://purl.org/dc/elements/1.1/"
   xmlns:cc="http://creativecommons.org/ns#"
   xmlns:rdf="http://www.w3.org/1999/02/22-rdf-syntax-ns#"
   xmlns:svg="http://www.w3.org/2000/svg"
   xmlns="http://www.w3.org/2000/svg"
   xmlns:sodipodi="http://sodipodi.sourceforge.net/DTD/sodipodi-0.dtd"
   xmlns:inkscape="http://www.inkscape.org/namespaces/inkscape"
   id="svg3036"
   version="1.1"
   inkscape:version="0.48.4 r9939"
   width="100"
   height="106"
   sodipodi:docname="metropolia.svg">
  <metadata
     id="metadata3042">
    <rdf:RDF>
      <cc:Work
         rdf:about="">
        <dc:format>image/svg+xml</dc:format>
        <dc:type
           rdf:resource="http://purl.org/dc/dcmitype/StillImage" />
        <dc:title></dc:title>
      </cc:Work>
    </rdf:RDF>
  </metadata>
  <defs
     id="defs3040" />
  <sodipodi:namedview
     pagecolor="#ffffff"
     bordercolor="#666666"
     borderopacity="1"
     objecttolerance="10"
     gridtolerance="10"
     guidetolerance="10"
     inkscape:pageopacity="0"
     inkscape:pageshadow="2"
     inkscape:window-width="1309"
     inkscape:window-height="744"
     id="namedview3038"
     showgrid="false"
     inkscape:zoom="2.8160377"
     inkscape:cx="51.169798"
     inkscape:cy="62.728567"
     inkscape:window-x="57"
     inkscape:window-y="24"
     inkscape:window-maximized="1"
     inkscape:current-layer="layer1" />
  <g
     inkscape:groupmode="layer"
     id="layer1"
     inkscape:label="Logo"
     style="display:inline">
    <g
       id="g3046"
       transform="translate(-9.8944077,-12.447445)">
      <path
         style="fill:#e99760"
         d="M 13.604539,112.919 C 12.651912,110.4365 17.893269,85.509134 21.861213,73.651108 26.111794,60.948431 33.986573,45.586993 40.241555,37.796326 48.988993,26.901272 58.667696,22.738053 63.875381,27.630418 l 2.209187,2.075424 6.215273,-4.575424 c 7.042943,-5.18472 11.846413,-6.003333 15.436423,-2.630693 2.060284,1.935537 0.784457,3.806966 8.978153,-2.5 6.842423,-5.266849 8.115393,-5.006591 9.024903,-3.534972 1.06257,1.719275 -0.63307,4.010907 -4.78521,6.467134 -2.287458,1.35316 -5.846514,4.020117 -7.909014,5.92657 -2.998162,2.771324 -3.75,4.188679 -3.75,7.069451 0,5.343139 -5.44439,21.327331 -9.429841,27.685082 -1.916262,3.056897 -4.641753,6.177546 -6.056648,6.934774 -2.25957,1.209285 -2.781742,1.167572 -4.292193,-0.342879 -3.988342,-3.988342 0.06602,-17.792075 9.309805,-31.696706 3.729153,-5.609447 4.568196,-7.572814 3.774741,-8.832925 -1.869356,-2.968782 -4.031343,-2.26899 -9.943118,3.218388 -5.836601,5.417602 -5.870475,5.482189 -7.595866,14.483086 -2.039652,10.640315 -6.606948,22.789933 -11.043601,29.377454 -3.857964,5.728287 -6.635386,7.453403 -9.516997,5.911212 -6.1465,-3.289507 -2.136839,-17.388397 10.653473,-37.460064 3.880172,-6.089103 4.82403,-8.331954 4.208296,-10 -1.344466,-3.642208 -3.810649,-3.007002 -9.606268,2.474252 -13.603159,12.865302 -25.237118,37.818696 -30.013587,64.375408 -0.989225,5.5 -2.224853,10.5625 -2.745839,11.25 -1.302152,1.71834 -2.643986,1.56569 -3.392914,-0.38599 z M 50.601913,76.768459 c 3.13204,-3.460865 8.64674,-18.365748 8.681314,-23.463464 0.03807,-5.613329 -5.63128,2.910387 -9.498676,14.281004 -3.473268,10.211832 -3.172462,13.591167 0.817362,9.18246 z M 78.380917,60.025995 c 1.628214,-3.590951 3.207259,-8.653451 3.508988,-11.25 l 0.548598,-4.721 -1.974566,2.240824 c -2.168974,2.461447 -8.168841,16.188665 -8.168841,18.689658 0,0.863235 0.703222,1.569518 1.562715,1.569518 0.955106,0 2.713764,-2.538582 4.523106,-6.529 z"
         id="path3056"
         inkscape:connector-curvature="0"
         sodipodi:nodetypes="sssscsssssssssssssssssssssssssssscssss" />
      <path
         style="fill:#efa326"
         d="m 13.295096,111.93064 c 0,-4.19644 5.462964,-27.964878 8.55742,-37.231895 8.93758,-26.765516 25.115932,-48.14375 36.433622,-48.14375 2.784705,0 4.163169,0.58584 5.294184,2.25 1.423925,2.095144 1.701671,2.146763 4.035556,0.75 1.378513,-0.825 4.103428,-2.778061 6.055367,-4.340135 2.06371,-1.651521 5.294304,-3.074233 7.719347,-3.3995 3.56913,-0.47872 4.426196,-0.220202 5.944883,1.793167 l 1.774517,2.35253 5.342552,-3.540279 c 8.713216,-5.773873 9.842556,-6.247563 9.842556,-4.128371 0,1.047262 -1.50261,2.616988 -3.57176,3.731298 -1.964469,1.057936 -5.547635,3.76354 -7.962593,6.012455 -3.304485,3.077281 -4.254285,4.611098 -3.838928,6.199425 0.755,2.887122 -3.013181,16.174387 -6.55628,23.118592 -4.672456,9.157658 -6.244837,10.325697 -2.962682,2.200818 3.381803,-8.371552 4.902215,-17 2.995557,-17 -1.449542,0 -8.833842,15.046648 -9.730848,19.828099 -0.388524,2.071015 -0.181542,4.247979 0.509027,5.353756 0.932653,1.493414 0.861381,1.979582 -0.35885,2.447828 -3.584176,1.375377 -4.780376,-0.389862 -4.344799,-6.411645 0.48755,-6.74031 4.358856,-15.575619 11.149011,-25.444888 4.726612,-6.869977 5.041868,-8.970262 1.621233,-10.80093 -2.677514,-1.432963 -2.594177,-1.478293 -9.534646,5.186287 -5.563928,5.342759 -6.413446,6.636896 -6.413446,9.7701 0,5.516486 -3.660925,17.637563 -8.128961,26.914442 -2.210051,4.588677 -4.243328,8.117996 -4.518393,7.84293 -0.275065,-0.275065 0.156432,-1.779437 0.958884,-3.343049 3.451409,-6.725225 6.999291,-20.36937 5.984373,-23.014202 -0.905207,-2.358933 -1.957246,-1.441712 -5.071131,4.421272 -5.848413,11.011692 -8.937252,23.512507 -6.047721,24.475684 1.708227,0.569409 0.02841,2.774316 -2.113623,2.774316 -8.125087,0 -3.675178,-18.162361 8.91045,-36.368116 5.458309,-7.895721 6.052931,-10.392659 3.109309,-13.056601 -2.537858,-2.296729 -4.192559,-1.351235 -11.722352,6.698137 -12.733614,13.612274 -23.178234,37.582066 -27.332539,62.726575 -1.739045,10.52581 -1.913517,11 -4.047348,11 -1.16158,0 -1.980948,-0.67187 -1.980948,-1.62435 z"
         id="path3054"
         inkscape:connector-curvature="0" />
      <path
         style="fill:#e46854"
         d="m 13.295096,111.93064 c 0,-4.19644 5.462964,-27.964878 8.55742,-37.231895 8.93758,-26.765516 25.115932,-48.14375 36.433622,-48.14375 2.784705,0 4.163169,0.58584 5.294184,2.25 1.423925,2.095144 1.701671,2.146763 4.035556,0.75 1.378513,-0.825 4.164284,-2.824479 6.190604,-4.443286 2.820074,-2.25293 4.75214,-2.956588 8.237238,-3 2.789468,-0.03475 4.720549,0.427457 4.985532,1.193286 0.257192,0.743312 -0.428118,1.25 -1.690661,1.25 -11.343504,0 -35.214473,31.376685 -37.707252,49.563492 -0.446866,3.260243 -0.25644,4.867795 0.642431,5.423328 1.669689,1.031924 0.410358,3.01318 -1.915246,3.01318 -3.141786,0 -4.344349,-2.598919 -3.866856,-8.356857 0.571041,-6.886009 5.732418,-17.788862 14.364612,-30.343695 8.042433,-11.697073 8.113726,-11.867879 5.530591,-13.250332 -7.122843,-3.812029 -25.640297,17.640955 -34.052602,39.450884 -3.63431,9.422395 -7.503996,23.379391 -9.010877,32.499995 -1.739045,10.52581 -1.913517,11 -4.047348,11 -1.16158,0 -1.980948,-0.67187 -1.980948,-1.62435 z M 68.640535,69.012812 C 68.31505,68.164611 68.267024,65.198945 68.533811,62.422443 69.522389,52.134117 84.166763,28.78527 93.162104,23.155333 c 11.310966,-7.079227 11.139146,-7.002459 11.077376,-4.949114 -0.0341,1.133912 -2.39946,3.357823 -6.117229,5.751462 -7.185684,4.626408 -13.859852,13.127748 -20.305991,25.865119 -4.930544,9.742602 -6.366023,15.149715 -4.721169,17.783544 0.595262,0.953166 0.808779,2.006544 0.474483,2.34084 -1.18473,1.18473 -4.345809,0.5855 -4.929039,-0.934372 z"
         id="path3052"
         inkscape:connector-curvature="0" />
      <path
         style="fill:#e3382e"
         d="m 14.296463,111.88833 c 0.01046,-6.3765 6.31205,-31.716015 9.657315,-38.833335 2.867263,-6.100331 2.556872,-3.714705 -1.534138,11.791198 -1.711017,6.485159 -3.683708,15.225057 -4.383759,19.422007 -0.700051,4.19694 -1.828112,7.8159 -2.506803,8.04213 -0.67869,0.22623 -1.233367,0.0363 -1.232615,-0.422 z M 43.737515,80.461827 c -1.143213,-1.849757 -0.634781,-8.178728 1.034227,-12.874066 1.800774,-5.06603 6.475086,-13.414368 7.139062,-12.750391 0.241663,0.241662 -0.963227,4.625906 -2.677532,9.742764 -2.00605,5.987659 -2.986548,10.670435 -2.751121,13.13912 0.358251,3.756615 -1.172549,5.286264 -2.744636,2.742573 z M 70.045096,68.976713 c -1.728221,-1.739861 -0.62106,-9.19094 2.275473,-15.313701 1.663142,-3.51559 3.238953,-6.176925 3.501801,-5.914077 0.262848,0.262848 -0.463095,3.13924 -1.613207,6.391983 -1.150112,3.252742 -2.388777,8.09135 -2.75259,10.752462 -0.363812,2.661111 -0.998977,4.498611 -1.411477,4.083333 z"
         id="path3048"
         inkscape:connector-curvature="0" />
    </g>
    <path
       style="fill:#e8642c"
       d="m 4.4607177,99.30926 c 0.004,-2.17311 3.1029047,-17.847797 4.9920177,-25.249995 7.0408996,-27.588674 20.4556616,-51.1543 33.4233426,-58.714566 3.278319,-1.911286 8.368914,-1.558649 10.3153,0.714565 2.201821,2.571539 4.47179,2.537253 6.861767,-0.103643 3.377796,-3.732422 10.072078,-7.0536693 13.531264,-6.7132903 3.614849,0.355695 5.291044,2.8169333 1.918436,2.8169333 -9.977364,0 -30.312825,23.870952 -37.009721,43.444173 -2.511398,7.340138 -2.609612,11.12088 -0.311799,12.002634 1.431969,0.549498 1.483147,0.808387 0.303882,1.537214 -2.003515,1.23824 -4.693456,-0.464843 -5.238629,-3.316735 C 32.118692,59.826395 37.170239,47.737258 47.642266,31.275433 54.968988,19.757968 55.079858,19.461717 52.566813,18.116777 49.504634,16.477948 42.412089,20.212838 36.790364,26.424556 23.581342,41.019848 13.526767,63.326997 8.9980594,88.08475 c -0.953197,5.21098 -1.900228,10.03701 -2.104513,10.72451 -0.397013,1.33611 -2.4351167,1.75498 -2.4328287,0.5 z M 60.126017,56.392598 C 57.1708,53.437381 62.518531,37.575183 70.326421,26.136624 c 2.273111,-3.330107 4.14715,-6.39733 4.16453,-6.816051 0.04012,-0.966556 4.670203,-6.261309 5.475302,-6.261309 0.33156,0 3.253453,-1.8 6.493097,-4.0000003 3.239644,-2.2 6.364954,-3.9999995 6.945134,-3.9999995 2.40098,0 0.71979,2.0501335 -4.695134,5.7254828 -3.248108,2.204636 -7.852298,6.703103 -10.581628,10.33865 -2.657396,3.539727 -5.746747,7.560867 -6.865224,8.935867 -3.094828,3.804626 -8.980564,16.903849 -9.570087,21.299067 -0.363812,2.71242 -0.09785,4.172921 0.871694,4.786838 1.148474,0.727215 1.115208,0.886179 -0.188088,0.898783 -0.870834,0.0084 -1.883334,-0.284687 -2.25,-0.651354 z"
       id="path3050"
       inkscape:connector-curvature="0" />
  </g>
</svg>
