<?xml version="1.0" encoding="UTF-8" standalone="no"?>
<!-- Created with Inkscape (http://www.inkscape.org/) -->

<svg
   xmlns:dc="http://purl.org/dc/elements/1.1/"
   xmlns:cc="http://creativecommons.org/ns#"
   xmlns:rdf="http://www.w3.org/1999/02/22-rdf-syntax-ns#"
   xmlns:svg="http://www.w3.org/2000/svg"
   xmlns="http://www.w3.org/2000/svg"
   version="1.1"
   width="100"
   height="96"
   id="svg7988">
  <metadata
     id="metadata7994">
    <rdf:RDF>
      <cc:Work
         rdf:about="">
        <dc:format>image/svg+xml</dc:format>
        <dc:type
           rdf:resource="http://purl.org/dc/dcmitype/StillImage" />
        <dc:title></dc:title>
      </cc:Work>
    </rdf:RDF>
  </metadata>
  <defs
     id="defs7992" />
  <g
     id="layer1"
     style="display:none">
    <path
       d="M 37.679213,94.68689 C 13.279005,87.621961 -2.0689948,64.084091 2.2919223,40.416538 5.3139533,24.015392 14.957639,11.606637 30.264572,4.423483 c 7.248917,-3.401732 9.379355,-3.82763596 19.14643,-3.82763596 9.716167,0 11.909878,0.43313796 18.927109,3.73706896 10.150108,4.77899 15.187144,9.086831 20.825811,17.810948 5.964318,9.227967 9.078028,20.727626 8.028998,29.6531 C 94.27467,76.626771 75.789954,94.342268 51.244174,95.833608 46.735859,96.107521 40.874323,95.612015 37.679213,94.68689 z M 54.539855,75.172631 c 0.416997,-0.416997 -0.11603,-1.72417 -1.184518,-2.904828 -1.068481,-1.18066 -2.503616,-3.621995 -3.189191,-5.425189 -1.002235,-2.63608 -2.149993,-3.353498 -5.857158,-3.661077 C 37.53044,62.619129 36.628847,59.894033 36.607414,39.9033 l -0.018,-16.790177 -7.326623,0 -7.326623,0 0,18.668369 c 0,16.952553 0.252522,19.162567 2.747484,24.045314 3.396515,6.647126 7.238607,9.533706 14.349811,10.781072 5.2977,0.929261 13.941987,0.129161 15.506393,-1.435247 z M 80.999451,70.430895 80.792828,64.0201 75.510205,63.409548 C 67.966619,62.537681 67.156839,60.264911 67.135009,39.9033 l -0.018,-16.790177 -7.433906,0 -7.433906,0 0.412559,19.232384 c 0.37984,17.707111 0.647279,19.642171 3.372162,24.399416 3.703709,6.46613 10.547751,10.094469 19.043453,10.095803 l 6.128705,9.64e-4 -0.206623,-6.410795 z"
       id="path7998"
       style="fill:#820092;fill-opacity:1" />
  </g>
  <g
     id="layer2"
     style="display:inline">
    <path
       d="m 95.495369,45.807404 a 45.44659,45.44659 0 1 1 -90.8931809,0 45.44659,45.44659 0 1 1 90.8931809,0 z"
       transform="matrix(1.0306859,0.08581739,-0.07605432,1.0299655,1.9480578,-3.3506535)"
       id="path8026"
       style="fill:#000000;fill-opacity:1;fill-rule:nonzero;stroke:none" />
  </g>
  <g
     id="layer3"
     style="display:inline">
    <path
       d="m 21.909548,23.155779 0.0804,27.055276 c -1.021761,19.825518 12.990773,26.27519 18.981975,26.262195 9.590356,0.454044 12.461939,-0.495528 16.174814,-1.65918 0,0 -5.399252,-4.879965 -7.097959,-11.750958 -18.11538,-0.04825 -12.022675,-6.518998 -13.425664,-39.947534 z"
       id="path3041"
       style="fill:#ffffff;fill-opacity:1;stroke:none" />
  </g>
  <g
     id="layer4">
    <path
       d="m 52.296588,23.076363 0.0804,27.055276 c 0.824722,20.76851 9.516146,27.429357 28.814925,26.702238 0,0 0.191311,-5.609169 -0.446736,-12.922103 C 62.983351,63.112223 68.413143,56.464698 67.010154,23.036162 z"
       id="path3041-4"
       style="fill:#fdff00;fill-opacity:1;stroke:none;display:inline" />
  </g>
</svg>
